<?xml version="1.0" encoding="utf-8"?>
<svg version="1.1" xmlns="http://www.w3.org/2000/svg" xmlns:xlink="http://www.w3.org/1999/xlink" x="0px" y="0px"
	 viewBox="10 80 500 180" xml:space="preserve">
<g id="Objects">
	<g>
		<g>
			<g>
				<rect x="152.579" y="224.267" width="4.423" height="4.423"/>
				<rect x="223.689" y="160.772" width="4.423" height="4.423"/>
				<rect x="148.156" y="228.69" width="4.423" height="4.423"/>
				<rect x="143.733" y="228.69" width="4.423" height="4.423"/>
				<rect x="139.31" y="228.69" width="4.423" height="4.423"/>
				<rect x="134.887" y="233.113" width="4.423" height="4.423"/>
				<rect x="289.054" y="233.113" width="4.423" height="4.423"/>
				<rect x="284.63" y="233.113" width="4.423" height="4.423"/>
				<rect x="280.207" y="233.113" width="4.423" height="4.423"/>
				<rect x="275.784" y="228.69" width="4.423" height="4.423"/>
				<rect x="271.361" y="224.267" width="4.423" height="4.423"/>
				<rect x="271.361" y="224.267" width="4.423" height="4.423"/>
				<polygon points="132.175,125.703 102.615,125.703 100.678,130.126 130.386,130.126 				"/>
				<rect x="152.579" y="125.703" width="30.474" height="4.423"/>
				<g>
					<polygon points="372.664,100.289 343.953,100.289 332.822,125.703 362.382,125.703 					"/>
					<rect x="382.787" y="100.289" width="30.473" height="25.414"/>
				</g>
				<polygon points="378.364,130.126 378.364,158.633 344.637,158.633 356.17,130.126 326.462,130.126 
					308.491,171.16 328.202,189.45 378.364,189.45 378.364,205.701 408.837,205.701 408.837,130.126 				"/>
				<rect x="373.941" y="210.124" width="30.473" height="18.566"/>
				<polygon points="353.536,125.703 323.976,125.703 322.039,130.126 351.747,130.126 				"/>
				<rect x="373.941" y="125.703" width="30.473" height="4.423"/>
				<rect x="382.787" y="205.701" width="30.473" height="4.423"/>
				<polygon points="288.456,100.289 222.03,100.289 208.162,114.499 208.162,125.703 208.162,130.126 
					208.162,156.349 236.958,156.349 236.958,128.091 273.356,128.091 273.356,156.349 302.323,156.349 302.323,114.499 				"/>
				<rect x="194.893" y="156.349" width="28.796" height="4.423"/>
				<rect x="264.51" y="156.349" width="28.967" height="4.423"/>
				<g>
					<polygon points="151.303,100.289 122.593,100.289 111.462,125.703 141.022,125.703 					"/>
					<rect x="161.426" y="100.289" width="30.474" height="25.414"/>
				</g>
				<rect x="404.414" y="224.267" width="4.423" height="4.423"/>
				<rect x="413.261" y="210.124" width="4.423" height="4.423"/>
				<rect x="413.261" y="95.866" width="4.423" height="4.423"/>
				<rect x="408.837" y="95.866" width="4.423" height="4.423"/>
				<rect x="404.414" y="95.866" width="4.423" height="4.423"/>
				<rect x="417.684" y="91.443" width="4.423" height="4.423"/>
				<rect x="228.112" y="87.02" width="4.423" height="4.423"/>
				<rect x="232.535" y="91.443" width="4.423" height="4.423"/>
				<rect x="236.958" y="91.443" width="4.423" height="4.423"/>
				<rect x="241.381" y="91.443" width="4.423" height="4.423"/>
				<rect x="245.804" y="95.866" width="4.423" height="4.423"/>
				<rect x="187.477" y="95.866" width="4.423" height="4.423"/>
				<rect x="191.9" y="95.866" width="4.423" height="4.423"/>
				<rect x="196.323" y="91.443" width="4.423" height="4.423"/>
				<rect x="417.684" y="210.124" width="4.423" height="4.423"/>
				<rect x="422.107" y="210.124" width="4.423" height="4.423"/>
				<rect x="369.518" y="224.267" width="4.423" height="4.423"/>
				<rect x="399.991" y="224.267" width="4.423" height="4.423"/>
				<g>
					<rect x="157.003" y="193.917" width="30.474" height="34.773"/>
					<polygon points="187.477,130.126 157.003,130.126 157.003,158.633 123.277,158.633 134.809,130.126 
						105.102,130.126 87.13,171.16 106.842,189.45 157.003,189.45 157.003,189.494 187.477,189.494 					"/>
					<rect x="152.579" y="189.494" width="30.474" height="4.423"/>
					<g>
						<polygon points="268.933,160.772 268.933,200.887 232.535,200.887 232.535,193.917 203.739,193.917 
							203.739,214.48 217.607,228.69 284.033,228.69 297.9,214.48 297.9,160.772 						"/>
						<rect x="199.316" y="160.772" width="28.796" height="28.722"/>
						<rect x="75.316" y="189.494" width="28.796" height="4.423"/>
					</g>
				</g>
			</g>
			<g>
				<rect x="48.152" y="224.267" width="4.423" height="4.423"/>
				<polygon points="139.306,228.69 134.883,228.69 134.883,233.113 139.306,233.113 143.729,233.113 148.152,233.113 
					148.152,228.69 143.729,228.69 				"/>
				<rect x="30.46" y="233.113" width="4.423" height="4.423"/>
				<polygon points="280.203,237.536 284.626,237.536 289.049,237.536 289.049,233.113 284.626,233.113 280.203,233.113 
					275.78,23.113 275.78,237.536 				"/>
				<rect x="71.357" y="228.69" width="4.423" height="4.423"/>
				<polygon points="404.41,205.701 404.41,130.126 399.987,130.126 399.987,125.703 408.833,125.703 408.833,100.289 
					413.256,100.289 413.256,95.866 408.833,95.866 404.41,95.866 399.987,95.866 399.987,100.289 378.36,100.289 378.36,125.703 
					369.513,125.703 369.513,130.126 373.937,130.126 373.937,158.633 340.209,158.633 351.742,130.126 347.319,130.126 
					349.108,125.703 357.955,125.703 368.236,100.289 339.525,100.289 328.395,125.703 319.549,125.703 317.611,130.126 
					322.034,130.126 304.063,171.16 323.774,189.45 373.937,189.45 373.937,205.701 378.36,205.701 378.36,210.124 369.513,210.124 
					369.513,224.267 365.09,224.267 365.09,228.69 369.513,228.69 369.513,228.69 395.564,228.69 395.564,228.69 399.987,228.69 
					404.41,228.69 404.41,224.267 399.987,224.267 399.987,210.124 408.833,210.124 408.833,205.701 				"/>
				<path d="M245.799,100.289v-4.423h-4.423v4.423h-23.774l-13.868,14.21v11.204v4.423v26.223h-13.269v4.423h4.423v28.722v4.423
					h4.423v20.563l13.868,14.21h53.754v0h4.423v0h8.248l13.867-14.21v-53.708h-4.423v-4.423h8.846v-41.85l-13.867-14.21H245.799z
					 M264.505,160.772v40.115h-36.398v-6.97h-4.423v-4.423v-24.299v-4.423h-4.423v-4.423h13.269v-28.258h36.398v28.258h-8.846v4.423
					H264.505z"/>
				<rect x="13.256" y="91.443" width="4.423" height="4.423"/>
				<rect x="223.684" y="87.02" width="4.423" height="4.423"/>
				<polygon points="236.953,91.443 232.53,91.443 228.107,91.443 228.107,95.866 232.53,95.866 236.953,95.866 241.376,95.866 
					241.376,91.443 				"/>
				<polygon points="191.896,95.866 187.473,95.866 183.05,95.866 183.05,100.289 156.999,100.289 156.999,125.703 148.152,125.703 
					148.152,130.126 152.576,130.126 152.576,158.633 118.849,158.633 130.382,130.126 125.958,130.126 127.747,125.703 
					136.594,125.703 146.875,100.289 118.165,100.289 107.034,125.703 98.188,125.703 96.25,130.126 100.674,130.126 82.702,171.16 
					102.414,189.45 152.576,189.45 152.576,189.494 148.152,189.494 148.152,193.917 152.576,193.917 152.576,228.69 183.05,228.69 
					183.05,193.917 178.626,193.917 178.626,189.494 183.05,189.494 183.05,130.126 178.626,130.126 178.626,125.703 
					187.473,125.703 187.473,100.289 191.896,100.289 				"/>
				<rect x="191.896" y="91.443" width="4.423" height="4.423"/>
				<polygon points="417.679,210.124 413.256,210.124 408.833,210.124 408.833,214.547 413.256,214.547 417.679,214.547 
					22.102,214.547 422.102,210.124 				"/>
			</g>
		</g>
	</g>
</g>
</svg>
